<?xml version="1.0" standalone="no"?>
<!DOCTYPE svg PUBLIC "-//W3C//DTD SVG 20010904//EN"
 "http://www.w3.org/TR/2001/REC-SVG-20010904/DTD/svg10.dtd">
<svg version="1.0" xmlns="http://www.w3.org/2000/svg"
 width="700.000000pt" height="700.000000pt" viewBox="0 0 700.000000 700.000000"
 preserveAspectRatio="xMidYMid meet">
<metadata>
Created by potrace 1.14, written by Peter Selinger 2001-2017
</metadata>
<g transform="translate(0.000000,700.000000) scale(0.100000,-0.100000)"
fill="#000000" stroke="none">
<path d="M3350 6844 c-130 -44 -267 -103 -485 -210 -205 -100 -495 -253 -618
-326 -26 -15 -52 -28 -57 -28 -6 0 -10 -610 -10 -1657 l1 -1658 995 1000 c547
550 1233 1239 1524 1530 292 292 530 534 530 537 0 4 -26 21 -57 39 -32 18
-102 59 -156 91 -54 32 -99 58 -101 58 -2 0 -47 25 -101 55 -54 31 -137 77
-184 102 -47 26 -117 64 -156 85 -129 70 -509 256 -616 301 -292 124 -352 134
-509 81z"/>
<path d="M1326 5763 c-342 -213 -662 -453 -741 -556 -54 -72 -96 -325 -120
-732 -3 -60 -8 -139 -10 -175 -21 -354 -21 -1276 0 -1600 2 -36 7 -110 10
-165 12 -215 15 -248 41 -439 40 -297 53 -317 361 -547 73 -55 137 -99 142
-99 5 0 11 -4 13 -9 3 -7 256 -176 361 -240 34 -21 37 -21 37 -4 3 96 0 4616
-2 4618 -2 2 -44 -21 -92 -52z"/>
<path d="M4923 4730 l-923 -920 103 -147 c115 -165 176 -254 292 -423 44 -63
82 -117 85 -120 3 -3 37 -52 76 -110 96 -141 680 -988 738 -1070 26 -36 137
-195 247 -355 110 -159 204 -291 209 -293 10 -4 258 162 394 263 138 101 238
192 284 256 21 30 52 163 67 284 3 28 8 61 10 75 6 36 19 189 31 360 30 455
34 1244 9 1760 -7 158 -16 319 -20 350 -2 19 -7 62 -10 95 -13 146 -41 320
-63 390 -24 78 -82 145 -222 254 -36 28 -70 55 -76 60 -21 18 -301 211 -305
211 -2 0 -419 -414 -926 -920z"/>
<path d="M3264 3063 c-115 -113 -406 -399 -646 -636 l-438 -431 0 -632 c0
-493 3 -634 13 -641 6 -6 48 -29 92 -53 44 -24 85 -46 90 -50 37 -26 549 -286
687 -349 237 -108 372 -151 453 -146 74 4 234 59 410 140 182 83 539 265 715
362 113 63 122 68 250 140 181 102 190 107 190 115 0 4 -60 96 -134 205 -190
282 -373 553 -552 818 -203 301 -397 587 -624 923 -102 150 -192 283 -200 297
-8 13 -33 51 -56 83 l-40 60 -210 -205z"/>
</g>
</svg>
